<svg width="1080" height="299" viewBox="0 0 1080 299" fill="none" xmlns="http://www.w3.org/2000/svg">
<g clip-path="url(#clip0_6237_3123)">
<path d="M173.301 175.968C172.971 177.574 172.641 179.196 172.311 180.802C164.047 182.179 155.749 183.096 147.452 183.604C156.261 181.228 164.888 178.721 173.301 175.968Z" fill="#ED1C27"/>
<path d="M358.012 18.1767C334.371 83.1995 285.705 141.9 220.025 167.696C220.025 167.696 222.662 154.806 222.679 154.806C275.995 124.441 312.379 70.0639 327.085 11.7236C332.278 8.90648 346.456 0.864624 346.456 0.864624C346.456 0.864624 353.94 11.9038 358.012 18.1767Z" fill="#ED1C27"/>
<path d="M246.141 40.5067C246.619 38.1482 247.361 36.6742 250.048 36.4776C261.555 35.5768 273.046 33.726 284.52 33.8243C298.698 33.9226 308.079 43.8643 309.925 58.9326C317.228 43.7824 322.966 27.9444 327.071 11.7133C326.873 11.5659 326.675 11.4348 326.477 11.3038C315.151 3.62228 302.21 1.55859 288.922 1.00172C261.77 -0.177538 235.475 5.06359 209.493 12.1883C208.108 12.5813 206.509 14.6778 206.179 16.2338C203.888 27.3384 163.283 224.995 163.283 224.995H193.666C202.223 224.995 209.559 218.443 211.29 210.025C211.306 210.057 244.163 50.2192 246.141 40.5067Z" fill="white"/>
<path d="M349.092 39.8715C324.89 92.2664 284.253 138.306 231.498 162.776C316.944 187.033 373.178 103.486 349.092 39.8715Z" fill="white"/>
<path d="M152.697 81.5686C90.6438 21.9999 -15.1466 89.9872 1.81745 170.995C12.3685 221.392 67.2667 232.579 111.696 220.688C139.887 213.154 136.524 185.982 136.524 185.982C101.162 194.105 33.8661 186.801 39.3889 159.956C66.5908 167.54 108.053 169.341 137.151 154.486C175.118 135.094 168.639 99.3557 152.697 81.5686ZM126.682 115.521C117.203 134.963 63.0298 134.799 43.5269 129.115C55.7595 101.534 87.9236 85.0572 117.417 96.9972C126.319 100.617 130.276 108.085 126.682 115.521Z" fill="white"/>
<path d="M543.412 71.4286C517.134 62.8626 485.613 58.9318 462.532 58.9318C401.452 58.9318 363.007 113.554 364.804 161.478C365.496 179.871 371.711 221.62 427.648 226.419C443.178 227.745 457.999 225.763 470.973 216.231C471.072 216.149 471.979 215.347 471.764 216.493C471.303 219.163 470.264 225.026 470.264 225.026C470.264 225.026 499.428 225.026 513.26 225.026C515.864 225.026 516.227 223.241 516.606 221.423C526.547 173.106 536.554 124.888 546.38 76.5387C547.006 73.4923 546.396 72.3785 543.412 71.4286ZM496.015 100.222C490.773 125.134 485.695 150.078 480.403 175.006C479.941 177.152 478.82 179.101 477.172 180.559C464.61 191.663 449.97 195.316 433.616 191.581C402.26 184.424 407.403 140.251 418.383 118.943C428.39 99.5505 451.009 88.5933 474.039 91.5578C497.087 94.5059 496.609 97.323 496.015 100.222Z" fill="white"/>
<path d="M1081.17 117.223C1077.95 79.0937 1047.65 58.9318 1011.28 58.9318C935.02 58.9318 909.829 122.235 912.154 166.228C914.379 208.468 951.984 228.138 989.869 224.617C1025.07 222.537 1051.51 206.568 1067.86 175.285C1077.33 157.154 1083.46 138.04 1081.17 117.223ZM975.987 188.863C942.422 182 953.797 137.893 960.804 124.888C977.718 93.4741 1000.77 92.0328 1013.87 94.0965C1031.18 96.7989 1041.01 109.083 1040.04 129.834C1038.57 161.248 1015.04 196.839 975.987 188.863Z" fill="white"/>
<path d="M542.936 298.539L548.623 270.548C549.481 267.272 552.564 264.94 555.943 264.84C572.99 264.361 578.826 261.383 587.349 252.085C593.861 243.781 598.79 237.114 604.264 229.438C604.989 228.428 605.055 226.625 604.791 225.302C595.559 178.269 572.264 58.9423 572.264 58.9423C572.264 58.9423 614.732 58.5618 617.403 75.6676C622.53 108.423 634.664 174.646 635.241 177.26C636.741 174.663 676.455 106.24 695.035 73.4342C704.152 57.3376 738.888 58.9423 750.362 58.9423C716.121 116.364 649.616 227.717 639.247 245.021C612.309 289.92 588.602 298.886 563.774 298.572C557.015 298.489 542.936 298.539 542.936 298.539Z" fill="white"/>
<path d="M881.217 179.232C878.81 190.91 874.442 212.153 874.293 212.906C874.046 214.151 873.518 215.527 871.853 216.149C848.921 224.666 824.44 228.679 802.167 220.833C730.091 195.479 749.445 80.4203 824.72 62.1092C861.681 53.1173 898.544 66.1383 900.341 66.6951C902.435 67.3503 903.737 69.4467 903.309 71.5759C902.006 77.9799 897.868 98.2566 897.687 98.9936C876.832 92.2948 854.922 87.4467 833.622 94.8826C791.286 109.689 782.087 181.853 824.192 190.304C844.371 194.366 862.835 187.257 881.217 179.232Z" fill="white"/>
<path d="M778.543 286.426C784.372 287.62 798.766 287.248 799.095 278.119C799.095 274.456 794.224 271.033 789.599 270.051C783.88 268.857 780.24 268.83 774.466 270.051C770.908 271.378 769.814 267.981 773.043 266.84C779.173 264.664 803.09 264.212 804.212 278.119C803.227 291.866 782.347 290.884 777.64 289.955C775.779 289.61 774.357 288.761 774.357 286.479V275.04C774.357 272.333 778.516 272.36 778.516 275.04V286.426H778.543Z" fill="white"/>
<path d="M823.479 270.323C818.827 270.323 811 284.097 808.674 289.033C807.306 291.979 802.928 289.882 804.323 286.91C806.786 281.602 816.118 265.573 823.424 265.732C830.731 265.599 840.062 281.602 842.525 286.91C843.893 289.882 839.542 291.979 838.174 289.033C835.876 284.097 828.104 270.323 823.479 270.323Z" fill="white"/>
<path d="M856.037 285.837C860.689 285.837 868.515 272.063 870.814 267.127C872.182 264.181 876.561 266.277 875.165 269.223C872.702 274.531 863.371 290.561 856.064 290.428C848.757 290.561 839.426 274.558 836.963 269.223C835.595 266.251 839.946 264.154 841.341 267.127C843.64 272.063 851.384 285.837 856.037 285.837Z" fill="white"/>
<path d="M883.062 268.095V288.158C883.062 291.157 878.383 291.051 878.383 288.052V268.042C878.383 264.937 883.062 264.91 883.062 268.095Z" fill="white"/>
<path d="M905.433 285.837C910.085 285.837 917.912 272.063 920.211 267.127C921.579 264.181 925.957 266.277 924.562 269.223C922.071 274.531 912.74 290.561 905.433 290.428C898.127 290.561 888.795 274.558 886.332 269.223C884.964 266.251 889.315 264.154 890.683 267.127C892.982 272.063 900.726 285.837 905.379 285.837" fill="white"/>
<path d="M941.368 280.159C942.736 282.973 946.649 285.255 950.425 286.051C956.117 287.272 959.757 287.272 965.531 286.051C968.979 284.963 970.183 288.201 966.927 289.262C960.523 291.359 937.044 292.102 935.676 278.142C936.442 264.846 955.187 265.191 962.357 266.12C965.859 266.571 965.148 270.154 961.481 269.411C956.692 268.801 943.666 268.058 941.121 276.417H954.475C956.555 276.417 956.555 280.159 954.475 280.159H941.368Z" fill="white"/>
<path d="M1015.81 286.447C1021.64 287.642 1036.03 287.27 1036.36 278.141C1036.36 274.478 1031.49 271.055 1026.84 270.073C1021.15 268.878 1017.51 268.852 1011.73 270.073C1008.17 271.4 1007.08 268.003 1010.31 266.861C1016.47 264.685 1040.36 264.234 1041.48 278.141C1040.49 291.888 1019.61 290.906 1014.93 289.977C1013.07 289.632 1011.65 288.783 1011.65 286.5V275.062C1011.65 272.355 1015.81 272.382 1015.81 275.062V286.447Z" fill="white"/>
<path d="M1060.77 270.323C1056.12 270.323 1048.26 284.097 1045.96 289.033C1044.59 291.979 1040.24 289.882 1041.61 286.91C1044.1 281.602 1053.43 265.573 1060.71 265.732C1068.02 265.599 1077.35 281.602 1079.81 286.91C1081.18 289.882 1076.83 291.979 1075.46 289.033C1073.16 284.097 1065.42 270.323 1060.77 270.323Z" fill="white"/>
<path d="M932.439 268.095V288.158C932.439 291.157 927.759 291.051 927.759 288.052V268.042C927.759 264.937 932.439 264.91 932.439 268.095Z" fill="white"/>
<path d="M988.662 282.172C985.761 277.05 982.587 270.256 980.398 270.097C975.007 270.097 977.442 280.394 977.36 288.435C977.333 291.275 972.681 291.275 972.681 288.117C972.681 277.873 970.409 265.638 980.507 265.638C983.463 265.638 986.254 269.938 988.771 273.972C991.672 279.12 995.12 285.914 997.282 286.073C1002.67 286.073 1000.1 275.989 1000.21 267.947C1000.24 265.108 1004.89 265.108 1004.89 268.266C1004.89 278.536 1007.3 290.559 997.2 290.559C994.217 290.559 991.18 286.259 988.662 282.199" fill="white"/>
<path fill-rule="evenodd" clip-rule="evenodd" d="M713.667 270.62C713.765 271.38 713.667 274.631 710.608 279.093C707.402 284.006 712.468 292.217 722.697 290.129C724.949 290.912 727.372 291.031 728.938 291.007C730.504 291.007 732.951 290.912 735.203 290.153C745.432 292.241 750.473 284.006 747.268 279.093C744.184 274.655 744.111 271.38 744.208 270.62H713.716H713.667Z" fill="#E5252B"/>
<path fill-rule="evenodd" clip-rule="evenodd" d="M728.906 290.946C718.939 290.685 717.131 286.231 719.867 285.307C721.48 284.762 723.581 283.862 723.581 283.862C722.506 278.839 724.265 272.419 728.931 272.443C733.597 272.443 735.282 279.053 734.232 283.981C734.232 283.981 736.357 284.715 737.921 285.331C740.535 286.302 738.873 290.709 728.906 290.97" fill="#0682C4"/>
<path fill-rule="evenodd" clip-rule="evenodd" d="M725.18 287.446C722.522 280.279 724.863 273.561 728.937 273.561C732.815 273.584 735.449 280.089 732.717 287.422C732.717 287.422 731.424 287.138 728.815 287.138C726.863 287.138 725.205 287.446 725.205 287.446" fill="#FFE11B"/>
<path fill-rule="evenodd" clip-rule="evenodd" d="M728.887 291.056C732.912 291.056 736.058 290.228 736.058 289.068C736.058 287.908 732.912 287.056 728.887 287.056C724.863 287.056 721.716 287.885 721.716 289.068C721.716 290.251 724.863 291.056 728.887 291.056Z" fill="#F49824"/>
<path fill-rule="evenodd" clip-rule="evenodd" d="M715.631 274.181H720.467C721.225 274.181 721.836 274.774 721.836 275.508V278.661C721.836 279.42 721.225 280.012 720.467 280.012H715.631C714.873 280.012 714.238 279.42 714.238 278.661V275.508C714.238 274.774 714.849 274.181 715.631 274.181Z" fill="#0682C4"/>
<path d="M716.165 274.966H719.962C720.546 274.966 721.009 275.414 721.009 275.957V278.248C721.009 278.815 720.546 279.264 719.962 279.264H716.165C715.581 279.264 715.119 278.815 715.119 278.248V275.957C715.119 275.414 715.581 274.966 716.165 274.966Z" fill="#231F20"/>
<path fill-rule="evenodd" clip-rule="evenodd" d="M721.006 277.647C719.293 277.484 718.714 275.541 718.57 274.932H719.969C720.548 274.932 721.006 275.377 721.006 275.915V277.624V277.647Z" fill="#FFE11B"/>
<path fill-rule="evenodd" clip-rule="evenodd" d="M717.597 274.966C717.501 275.527 716.946 277.587 715.136 277.681V275.949C715.136 275.41 715.595 274.966 716.174 274.966H717.597Z" fill="#FFE11B"/>
<path fill-rule="evenodd" clip-rule="evenodd" d="M737.401 274.181H742.214C742.971 274.181 743.606 274.774 743.606 275.508V278.661C743.606 279.42 742.995 280.012 742.214 280.012H737.401C736.644 280.012 736.033 279.42 736.033 278.661V275.508C736.033 274.774 736.644 274.181 737.401 274.181Z" fill="#0682C4"/>
<path d="M737.966 274.966H741.787C742.371 274.966 742.834 275.414 742.834 275.957V278.248C742.834 278.815 742.371 279.264 741.787 279.264H737.966C737.406 279.264 736.944 278.815 736.944 278.248V275.957C736.944 275.414 737.406 274.966 737.966 274.966Z" fill="#231F20"/>
<path fill-rule="evenodd" clip-rule="evenodd" d="M742.799 277.647C741.086 277.484 740.507 275.541 740.362 274.932H741.785C742.364 274.932 742.823 275.377 742.823 275.915V277.624L742.799 277.647Z" fill="#FFE11B"/>
<path fill-rule="evenodd" clip-rule="evenodd" d="M739.366 274.966C739.245 275.527 738.714 277.587 736.905 277.681V275.949C736.905 275.41 737.363 274.966 737.918 274.966H739.366Z" fill="#FFE11B"/>
<path fill-rule="evenodd" clip-rule="evenodd" d="M738.942 258.407C738.432 256.732 738.335 255.906 739.915 255.906H743.392C745.507 255.859 744.632 257.463 744.437 259.02C744.17 261.073 744.17 261.71 744.17 261.71C744.17 261.71 738.942 258.454 738.942 258.431" fill="#E5252B"/>
<path fill-rule="evenodd" clip-rule="evenodd" d="M728.891 270.451C723.679 270.451 716.533 270.902 711.932 271.234C708.408 271.495 705.667 268.884 708.017 266.416C713.033 261.147 725.245 254.526 728.94 254.526C732.88 254.526 744.847 261.147 749.864 266.416C752.214 268.884 749.864 271.234 746.291 271.234C742.351 271.234 734.104 270.451 728.891 270.451Z" fill="#F49824"/>
<path d="M731.735 282.251C731.735 281.879 732.022 281.576 732.406 281.576C732.789 281.576 733.053 281.879 733.053 282.251C733.053 282.623 732.765 282.902 732.406 282.902C732.046 282.902 731.735 282.599 731.735 282.251Z" fill="#231F20"/>
<path fill-rule="evenodd" clip-rule="evenodd" d="M728.907 286.943C726.826 286.943 725.162 287.251 725.162 287.251C722.691 280.25 724.942 273.676 728.907 273.676C732.871 273.676 735.147 280.274 732.651 287.251C732.651 287.251 731.06 286.943 728.907 286.943ZM732.577 287.489C734.633 287.797 736.003 288.391 736.003 289.055C736.003 290.052 732.847 290.883 728.931 290.883C725.016 290.883 721.859 290.052 721.859 289.055C721.859 288.391 723.205 287.797 725.26 287.489C725.26 287.489 727.487 287.228 728.931 287.228C730.375 287.228 732.602 287.489 732.602 287.489M732.896 287.275C735.49 280.013 732.969 273.344 728.931 273.367C724.893 273.367 722.373 280.036 724.967 287.275C722.96 287.655 721.638 288.296 721.638 289.055C721.638 289.292 721.785 289.506 722.03 289.72C718.653 288.296 718.335 285.946 720.194 285.305C721.785 284.759 723.743 284.024 723.743 284.024C722.715 279.135 724.306 272.584 728.955 272.584C733.605 272.584 735.196 279.135 734.144 284.024C734.144 284.024 736.077 284.783 737.692 285.305C739.503 285.899 739.234 288.248 735.881 289.696C736.126 289.482 736.248 289.269 736.248 289.031C736.248 288.296 734.927 287.631 732.92 287.251M739.16 258.368C738.769 256.825 738.744 256.184 740.115 256.184H743.125C745.107 256.161 744.3 257.632 744.128 259.127C744.03 260.029 743.957 260.765 743.933 261.311C742.342 260.219 740.727 259.246 739.185 258.368M735.685 290.076C745.278 291.642 749.953 283.857 746.894 279.134C744.52 275.717 743.957 272.845 743.884 271.374C737.594 271.065 733.263 270.757 728.931 270.709C724.599 270.757 720.268 271.065 713.978 271.374C713.88 272.845 713.318 275.717 710.944 279.134C707.885 283.857 712.559 291.642 722.152 290.076C718.09 288.58 717.576 286.041 719.754 285.21C721.345 284.617 723.474 283.857 723.474 283.857C722.421 278.826 724.257 272.181 728.907 272.181C733.581 272.181 735.416 278.802 734.339 283.857C734.339 283.857 736.469 284.617 738.059 285.21C740.237 286.017 739.723 288.58 735.661 290.076M728.931 270.092C723.523 270.163 718.408 270.543 712.388 270.923C708.644 271.16 706.539 268.739 708.888 266.224C712.363 262.545 724.232 254.95 728.931 254.95C733.63 254.95 745.474 262.545 748.974 266.224C751.323 268.716 749.219 271.16 745.499 270.923C739.479 270.543 734.339 270.187 728.955 270.092M738.475 257.964C738.426 257.822 738.377 257.656 738.353 257.513C738.084 256.612 738.353 255.615 739.944 255.615H743.443C745.499 255.615 745.279 256.991 744.911 258.32C744.667 259.27 744.471 260.48 744.373 261.619C744.373 261.619 747.236 263.66 748.827 264.966C753.819 269.072 750.564 271.73 745.792 271.516C745.303 271.492 744.838 271.469 744.373 271.445C744.398 272.798 744.813 275.313 747.016 278.185C752.547 284.617 745.205 292.686 734.853 290.408C733.14 290.954 730.424 291.215 728.931 291.215C727.438 291.215 724.722 290.954 722.984 290.408C712.632 292.686 705.291 284.617 710.822 278.185C713.024 275.337 713.44 272.821 713.465 271.445L712.07 271.516C707.298 271.753 704.043 269.072 709.035 264.966C716.475 258.89 725.456 254.381 728.931 254.357C730.84 254.357 734.413 255.757 738.475 257.988" fill="#231F20"/>
<path d="M720.426 280.143H715.601C714.748 280.143 714.066 279.48 714.066 278.653V275.508C714.066 274.704 714.748 274.042 715.601 274.042H720.426C721.255 274.042 721.937 274.704 721.937 275.508V278.653C721.937 279.48 721.255 280.143 720.426 280.143ZM715.625 274.325C714.943 274.325 714.383 274.869 714.383 275.508V278.653C714.383 279.315 714.943 279.859 715.625 279.859H720.451C721.133 279.859 721.669 279.315 721.669 278.653V275.508C721.669 274.846 721.109 274.325 720.451 274.325H715.625Z" fill="#231F20"/>
<path d="M742.226 280.143H737.425C736.596 280.143 735.914 279.48 735.914 278.653V275.508C735.914 274.704 736.596 274.042 737.425 274.042H742.226C743.079 274.042 743.761 274.704 743.761 275.508V278.653C743.761 279.48 743.079 280.143 742.226 280.143ZM737.4 274.325C736.718 274.325 736.182 274.869 736.182 275.508V278.653C736.182 279.315 736.742 279.859 737.4 279.859H742.202C742.884 279.859 743.445 279.315 743.445 278.653V275.508C743.445 274.846 742.884 274.325 742.202 274.325H737.4Z" fill="#231F20"/>
</g>
<defs>
<clipPath id="clip0_6237_3123">
<rect width="1080" height="298.08" rx="25.4118" fill="white"/>
</clipPath>
</defs>
</svg>
